<svg fill="none" height="24" viewBox="0 0 24 24" width="24" xmlns="http://www.w3.org/2000/svg"><g fill="#fff"><path clip-rule="evenodd" d="m11.9999 11.1567c-.4692 0-.8495-.3803-.8495-.8495v-6.40532c0-.46918.3803-.84952.8495-.84952s.8495.38034.8495.84952v6.40532c0 .4692-.3803.8495-.8495.8495z" fill-rule="evenodd"/><path d="m19.3274 5.19481c-.3193-.34371-.8569-.36346-1.2006-.0441-.3437.31935-.3634.85688-.0441 1.20059zm.8465 2.68751-.7583.3828zm-16.34767 0 .75839.3828zm2.36322-1.81039c.33504-.32845.34039-.86631.01194-1.20135-.32844-.33504-.8663-.34039-1.20134-.01194zm14.11155 5.92807c0 4.5845-3.7164 8.301-8.3009 8.301v1.699c5.5228 0 10-4.4771 10-10zm-8.3009 8.301c-4.5845 0-8.30097-3.7165-8.30097-8.301h-1.69904c0 5.5229 4.47715 10 10.00001 10zm6.0826-13.9497c.5293.56967.9794 1.21349 1.3329 1.91382l1.5167-.7656c-.4261-.84419-.9681-1.61934-1.6049-2.30471zm1.3329 1.91382c.5661 1.12169.8854 2.38978.8854 3.73488h1.6991c0-1.6171-.3845-3.1468-1.0678-4.50048zm-15.71647 3.73488c0-1.3451.3193-2.61319.88549-3.73488l-1.51678-.7656c-.68328 1.35368-1.06775 2.88338-1.06775 4.50048zm.88549-3.73488c.41261-.81744.95674-1.55785 1.60483-2.19319l-1.1894-1.21329c-.77963.76428-1.43487 1.65558-1.93221 2.64088z"/></g></svg>